<svg width="280" height="280" viewBox="0 0 280 280" fill="none" xmlns="http://www.w3.org/2000/svg">
<rect width="280" height="280" rx="140" fill="#325444"/>
<path d="M248.286 97.29C254.948 121.157 243.616 160.893 188.879 149.151C163.612 143.731 151.275 124.768 137.036 107.339C127.732 95.9506 120.835 87.8683 104.827 85.6731C67.4915 80.5532 48.809 112.761 50.7386 145.994C52.1277 169.92 65.5261 211.263 115.789 201.677C165.05 183.882 185.662 198.922 153.871 211.263C112.731 227.232 153.871 246.118 196.476 200.005C235.516 157.75 249.922 177.66 236.186 199.747C215.718 227.681 181.412 246 142.543 246C79.8351 246 29 198.318 29 139.5C29 80.6816 79.8351 33 142.543 33C194.1 33 236.186 60.3313 248.286 97.29Z" fill="#CFFC0D"/>
</svg>
