<svg width="164" height="36" viewBox="0 0 164 36" fill="none" xmlns="http://www.w3.org/2000/svg">
<path d="M25.0311 1.59181C25.137 4.82376 25.137 11.8175 25.137 16.0031C25.19 18.4404 25.4549 23.8446 26.0377 27.9243L25.7198 28.0302C24.1833 24.4804 21.8521 20.3477 18.991 15.5263C15.3882 9.53923 12.0503 3.55217 11.2025 1.59181C10.1429 1.69777 1.82457 1.75076 0.5 1.59181C0.764914 13.407 0.764914 29.3548 0.5 34.865C1.55966 34.8121 6.32811 34.8121 7.38777 34.865C7.28181 31.2622 7.22882 24.6923 7.22882 20.2418C7.22882 17.4337 6.69899 11.8175 6.27513 7.73782L6.80496 7.63185C8.2355 10.4399 10.2488 14.0958 12.4211 17.7516C16.6598 24.9043 21.5872 32.8517 22.3289 34.865C24.1304 34.7591 29.9585 34.7591 31.495 34.865C31.1241 29.9906 31.336 7.4729 31.6539 1.59181H25.0311Z" fill="#CFFC0D"/>
<path d="M48.2504 13.0361C52.3831 13.0361 54.8203 15.5793 54.7673 19.9239C50.0518 20.0828 44.5416 20.0828 40.8858 20.0828C41.3626 15.3144 43.9058 13.0361 48.2504 13.0361ZM61.1252 29.2489C59.9596 28.6131 57.2575 26.8646 56.3038 26.1229C55.1912 28.1362 53.2308 30.1496 48.7802 30.1496C44.0118 30.1496 41.3626 27.9243 40.8858 23.5267C46.396 23.4207 55.3501 23.4737 61.1252 23.5267C61.2842 22.4141 61.3901 21.0895 61.3901 20.1888C61.3901 11.8705 56.0919 8.05571 48.2504 8.05571C38.7135 8.05571 34.157 13.7249 34.157 21.8842C34.157 29.9376 38.4486 35.4478 48.7272 35.4478C55.1912 35.4478 59.0589 32.7987 61.1252 29.2489Z" fill="#CFFC0D"/>
<path d="M102.858 2.28058C100.421 2.38655 98.6193 2.38655 95.9701 2.28058C96.0231 4.13498 96.0231 6.36026 96.0231 8.79747C93.9038 8.74449 92.2613 8.69151 91.4666 8.63853C91.6255 10.5989 91.6785 12.9301 91.5726 14.8905C92.3143 14.8375 93.9038 14.7845 95.9171 14.7845C95.8642 18.6523 95.8112 22.467 95.8112 25.1162C95.8112 31.951 98.6723 35.3949 106.196 35.3949C109.375 35.3949 112.077 34.8121 114.779 32.7987C113.772 31.3152 112.448 28.931 111.6 27.2355C110.17 28.2422 108.898 29.0369 106.779 29.0369C103.759 29.0369 102.275 27.5004 102.275 23.7916C102.275 22.1491 102.275 18.5993 102.381 14.7316C107.097 14.7316 111.918 14.7845 113.613 14.8905C113.507 12.9831 113.401 10.6519 113.507 8.63853C111.865 8.74449 107.203 8.79747 102.487 8.79747C102.593 6.04236 102.699 3.65814 102.858 2.28058Z" fill="#CFFC0D"/>
<path d="M127.361 30.4675C124.076 30.4675 122.327 29.3548 122.327 26.9176C122.327 24.9572 123.705 23.3148 128.103 23.3148C129.851 23.3148 131.917 23.3678 133.984 23.5797C133.984 28.1892 131.493 30.4675 127.361 30.4675ZM141.507 34.865C141.03 30.8913 141.083 21.5663 141.083 18.7053C141.083 11.8175 136.739 8.05571 129.109 8.05571C121.533 8.05571 117.877 11.7645 116.817 16.8509C119.043 17.0628 121.268 17.3807 123.546 17.9635C124.023 15.2084 125.612 13.407 128.844 13.407C132.606 13.407 134.037 15.5263 134.037 18.7582C134.037 19.2351 134.037 19.9239 133.984 20.7186C131.705 20.4537 129.215 20.2948 126.937 20.2948C118.884 20.2948 115.705 23.2618 115.705 27.8713C115.705 32.004 118.407 35.3949 124.977 35.3949C128.526 35.3949 132.076 33.7524 133.931 29.7787H134.09C134.143 30.9973 134.249 32.4278 134.408 34.865H141.507Z" fill="#CFFC0D"/>
<path d="M163.244 8.42659C162.291 8.16168 161.39 8.05571 160.224 8.05571C155.827 8.05571 153.495 10.9698 152.224 17.4337H151.906C151.853 13.5659 151.906 10.387 151.853 8.63853H145.389C145.76 17.0098 145.601 29.4078 145.336 34.865C147.667 34.7061 150.369 34.7591 152.595 34.865C152.489 30.1496 152.542 26.0169 152.542 23.2088C152.542 17.9635 155.35 15.2084 158.423 15.2084C159.641 15.2084 161.072 15.4203 161.973 15.8442L163.244 8.42659Z" fill="#CFFC0D"/>
<path d="M91.0529 16.3721C91.91 19.4396 90.4521 24.5465 83.4097 23.0374C80.1588 22.3408 78.5716 19.9036 76.7397 17.6637C75.5426 16.2 74.6552 15.1612 72.5956 14.8791C67.7921 14.2211 65.3884 18.3605 65.6367 22.6317C65.8154 25.7066 67.5392 31.0201 74.006 29.788C80.3438 27.501 82.9958 29.434 78.9055 31.0201C73.6126 33.0724 78.9055 35.4997 84.3871 29.5732C89.4099 24.1426 91.2633 26.7014 89.4961 29.54C86.8628 33.1302 82.4489 35.4845 77.4482 35.4845C69.3802 35.4845 62.8398 29.3564 62.8398 21.797C62.8398 14.2376 69.3802 8.10951 77.4482 8.10951C84.0814 8.10951 89.4961 11.6222 91.0529 16.3721Z" fill="#CFFC0D"/>
</svg>
